<?xml version="1.0" standalone="no"?>
<!DOCTYPE svg PUBLIC "-//W3C//DTD SVG 20010904//EN"
 "http://www.w3.org/TR/2001/REC-SVG-20010904/DTD/svg10.dtd">
<svg version="1.0" xmlns="http://www.w3.org/2000/svg"
 width="900.000000pt" height="312.000000pt" viewBox="0 0 900.000000 312.000000"
 preserveAspectRatio="xMidYMid meet">
<metadata>
Created by potrace 1.16, written by Peter Selinger 2001-2019
</metadata>
<g transform="translate(0.000000,312.000000) scale(0.100000,-0.100000)"
fill="#000000" stroke="none">
<path d="M395 3096 c-120 -29 -242 -133 -287 -243 l-23 -58 -3 -1219 c-2
-1093 -1 -1226 14 -1275 42 -148 169 -262 324 -291 77 -15 8056 -14 8135 1
171 31 305 168 335 340 7 45 10 423 8 1244 -3 1179 -3 1180 -24 1237 -44 115
-131 204 -246 251 l-53 22 -4065 2 c-3169 1 -4076 -1 -4115 -11z m1725 -443
c0 -120 -58 -250 -151 -344 -71 -71 -148 -110 -234 -117 l-65 -5 0 57 c0 192
168 395 373 451 79 21 77 22 77 -42z m2850 -478 l0 -265 -35 0 -35 0 0 258 c0
142 3 262 7 265 3 4 19 7 35 7 l28 0 0 -265z m1150 0 l0 -265 -30 0 c-26 0
-30 4 -30 26 l0 26 -31 -26 c-79 -67 -193 -37 -235 61 -31 72 -11 179 44 236
49 51 143 57 193 11 18 -17 19 -14 19 89 l0 107 35 0 35 0 0 -265z m1530 153
l0 -111 23 21 c65 61 171 43 203 -35 10 -22 14 -75 14 -163 l0 -130 -30 0 -30
0 0 103 c0 56 -5 119 -10 139 -20 71 -89 90 -141 39 -29 -29 -29 -30 -29 -155
l0 -126 -35 0 -35 0 0 265 0 265 35 0 35 0 0 -112z m-4275 65 c49 -17 90 -55
118 -108 27 -53 29 -161 4 -227 -22 -56 -88 -118 -144 -137 -50 -16 -171 -25
-217 -17 l-36 7 0 249 0 249 53 4 c74 5 175 -3 222 -20z m4061 -73 l-2 -50 48
0 c44 0 48 -2 48 -24 0 -23 -5 -25 -47 -28 l-48 -3 2 -120 c2 -131 10 -149 63
-143 21 3 25 -1 25 -22 0 -23 -4 -25 -46 -28 -38 -2 -52 2 -75 22 -29 24 -29
25 -32 160 l-4 136 -29 0 c-26 0 -30 3 -27 23 2 16 11 23 31 25 25 3 27 7 27
47 0 37 3 44 23 48 46 9 46 9 43 -43z m-3600 -71 c41 -25 61 -56 74 -113 12
-55 -2 -133 -32 -171 -70 -90 -230 -83 -289 11 -26 42 -34 117 -20 172 30 110
167 162 267 101z m924 3 c49 -36 60 -75 60 -214 l0 -128 -35 0 -35 0 0 130 c0
126 -1 132 -25 155 -33 34 -76 33 -117 -4 l-32 -28 0 -127 -1 -126 -32 0 -33
0 0 181 0 180 28 -3 c20 -2 28 -9 30 -26 l4 -24 23 22 c45 42 116 47 165 12z
m505 17 c79 -22 125 -88 125 -182 0 -116 -79 -192 -191 -185 -99 7 -159 75
-159 180 0 94 53 170 131 188 48 11 49 11 94 -1z m392 -15 c50 -32 58 -59 61
-206 l4 -138 -31 0 c-24 0 -31 4 -31 20 0 18 -2 18 -36 -5 -63 -43 -156 -28
-182 30 -41 90 22 163 156 181 57 7 65 21 37 61 -21 30 -71 38 -123 20 -39
-14 -42 -13 -48 5 -8 25 -4 28 53 44 53 15 106 10 140 -12z m979 -5 c42 -25
62 -57 75 -118 13 -61 -7 -145 -43 -178 -92 -84 -234 -66 -285 37 -57 112 -2
253 108 280 46 11 107 2 145 -21z m400 4 c43 -28 54 -71 54 -212 l0 -131 -30
0 -30 0 0 103 c0 56 -5 119 -10 139 -20 71 -89 90 -141 39 -29 -29 -29 -30
-29 -155 l0 -126 -35 0 -35 0 0 180 0 180 30 0 c27 0 30 -3 30 -31 l0 -31 18
21 c37 47 126 59 178 24z m1174 -2 c32 -22 58 -75 62 -126 l3 -40 -127 -3
c-121 -2 -128 -4 -128 -23 0 -34 29 -78 62 -95 29 -15 97 -16 148 -3 9 3 16
-4 18 -18 5 -32 -36 -46 -120 -41 -75 4 -107 21 -145 78 -27 39 -32 140 -9
193 39 93 158 132 236 78z m-4204 -8 c4 -16 21 -82 39 -148 l32 -120 22 75
c60 204 65 215 96 215 31 0 29 6 91 -200 15 -49 29 -85 30 -80 1 6 19 72 39
148 l37 137 33 0 33 0 -34 -107 c-19 -60 -44 -141 -57 -180 -21 -70 -23 -73
-54 -73 l-32 0 -40 125 c-23 68 -41 132 -41 142 -1 10 -22 -45 -48 -122 -46
-138 -47 -140 -79 -143 -35 -4 -28 -19 -98 213 -20 66 -38 126 -40 133 -3 8 7
12 30 12 29 0 36 -4 41 -27z m-1801 -88 c121 -26 245 -101 305 -185 l21 -29
-28 -15 c-16 -8 -52 -38 -82 -68 -150 -149 -179 -402 -67 -593 31 -53 131
-147 185 -175 40 -20 43 -24 37 -53 -9 -46 -87 -200 -147 -292 -29 -44 -89
-117 -134 -162 -70 -71 -88 -83 -140 -99 -55 -16 -65 -16 -130 -2 -38 9 -110
30 -160 48 -121 44 -206 40 -345 -15 -78 -31 -108 -38 -170 -39 -94 -1 -121
13 -215 108 -167 169 -300 431 -351 693 -23 117 -23 322 0 418 39 162 146 317
271 390 155 92 275 97 496 22 l136 -47 133 46 c199 68 258 76 385 49z m3777
-538 c37 -15 37 -15 25 -54 -6 -21 -12 -40 -13 -42 -2 -1 -26 5 -54 14 -71 23
-165 17 -208 -13 -59 -42 -60 -135 -2 -183 18 -15 71 -43 118 -63 147 -61 201
-124 202 -235 0 -104 -61 -183 -167 -216 -73 -23 -209 -17 -275 13 l-47 20 12
39 c6 21 12 40 13 41 2 2 28 -5 59 -17 67 -25 181 -28 225 -6 49 25 70 62 70
121 0 46 -4 57 -32 87 -21 21 -64 46 -114 67 -106 43 -166 87 -193 142 -58
120 8 253 149 299 39 13 191 4 232 -14z m-2346 -117 c23 -69 85 -250 137 -402
l95 -278 -57 0 -57 0 -40 123 -40 122 -146 3 -146 3 -42 -126 -42 -125 -55 0
c-40 0 -54 3 -50 13 2 6 65 189 138 405 l134 393 64 -3 64 -3 43 -125z m2675
-20 l-2 -80 80 0 81 0 0 -40 0 -39 -77 -3 -78 -3 0 -180 c0 -223 5 -235 90
-235 l55 0 0 -39 c0 -46 -9 -51 -88 -51 -68 0 -112 23 -139 72 -15 28 -18 64
-21 236 l-3 202 -45 0 -44 0 0 40 0 40 45 0 45 0 0 68 0 68 48 16 c26 8 49 13
51 12 2 -2 3 -40 2 -84z m-1936 -89 c156 -71 206 -316 97 -472 -83 -119 -257
-148 -352 -59 -18 17 -34 30 -36 30 -2 0 -4 -70 -4 -155 l0 -155 -50 0 -50 0
0 394 c0 217 -3 401 -6 410 -5 13 2 16 45 16 l51 0 0 -52 0 -53 27 34 c57 73
190 102 278 62z m692 -5 c150 -70 193 -328 80 -478 -83 -111 -255 -131 -349
-41 l-28 27 0 -157 0 -157 -55 0 -55 0 0 410 0 410 44 0 44 0 7 -46 7 -46 31
32 c70 72 178 90 274 46z m1896 -9 c101 -59 142 -147 135 -286 -5 -96 -25
-146 -79 -200 -59 -59 -104 -76 -204 -76 -80 0 -95 3 -137 27 -102 61 -143
147 -136 287 5 110 39 178 112 229 65 43 98 52 187 48 61 -2 85 -8 122 -29z
m557 -17 l0 -50 -36 0 c-46 0 -90 -26 -117 -70 -20 -32 -22 -50 -25 -227 l-4
-193 -54 0 -54 0 0 290 0 290 45 0 45 0 2 -37 c0 -21 2 -43 2 -50 2 -17 16
-29 16 -13 0 23 51 82 84 96 17 7 46 13 64 14 32 0 32 0 32 -50z m418 34 c47
-19 88 -58 113 -107 24 -46 43 -141 35 -173 l-6 -24 -204 0 -203 0 8 -42 c4
-24 8 -46 9 -50 0 -3 12 -21 27 -39 55 -65 149 -84 263 -55 30 8 56 14 57 13
0 -1 4 -18 8 -38 7 -36 6 -37 -32 -50 -23 -9 -80 -14 -143 -14 -99 0 -108 2
-160 31 -122 69 -168 221 -114 385 44 137 213 217 342 163z"/>
<path d="M5897 2209 c-29 -17 -47 -65 -47 -128 0 -49 4 -65 25 -89 31 -37 75
-48 116 -32 42 18 59 57 59 135 0 60 -3 69 -29 96 -23 22 -39 29 -68 29 -21 0
-46 -5 -56 -11z"/>
<path d="M3170 2160 l0 -200 67 0 c81 0 143 27 172 73 29 49 43 114 36 168
-14 103 -87 159 -207 159 l-68 0 0 -200z"/>
<path d="M3714 2223 c-12 -2 -34 -17 -49 -33 -52 -55 -45 -175 13 -220 35 -28
84 -26 121 5 100 85 37 270 -85 248z"/>
<path d="M5173 2215 c-49 -21 -69 -71 -65 -163 3 -48 58 -102 104 -102 65 0
110 57 110 141 -1 62 -25 107 -67 125 -41 17 -42 17 -82 -1z"/>
<path d="M5560 2083 c-83 -30 -76 -133 9 -133 49 0 81 38 81 95 l0 45 -37 -1
c-21 0 -45 -3 -53 -6z"/>
<path d="M6502 2218 c-45 -12 -72 -59 -72 -126 0 -110 70 -169 154 -130 28 12
66 81 66 119 0 100 -65 161 -148 137z"/>
<path d="M8083 2220 c-23 -9 -63 -65 -63 -87 0 -10 26 -13 95 -13 l95 0 0 26
c0 33 -51 84 -82 83 -13 0 -33 -4 -45 -9z"/>
<path d="M3467 1347 c-32 -99 -56 -181 -54 -183 2 -3 56 -3 118 -2 l114 3 -60
180 -60 180 -58 -178z"/>
<path d="M4209 1320 c-76 -23 -119 -86 -127 -187 -12 -157 69 -257 194 -238
87 13 144 99 144 217 0 99 -36 168 -104 199 -44 20 -66 22 -107 9z"/>
<path d="M4886 1320 c-37 -12 -85 -56 -102 -97 -19 -45 -19 -205 1 -242 35
-69 115 -103 192 -82 77 21 125 101 125 210 1 107 -47 190 -121 211 -42 11
-55 11 -95 0z"/>
<path d="M6755 1318 c-73 -40 -108 -107 -109 -208 0 -132 69 -220 174 -220
103 0 172 87 172 219 1 99 -36 172 -104 207 -32 17 -105 18 -133 2z"/>
<path d="M7796 1330 c-37 -12 -85 -56 -102 -97 -28 -64 -30 -63 137 -63 l152
0 -6 40 c-12 92 -94 146 -181 120z"/>
</g>
</svg>
