<?xml version="1.0" standalone="no"?>
<!DOCTYPE svg PUBLIC "-//W3C//DTD SVG 20010904//EN"
 "http://www.w3.org/TR/2001/REC-SVG-20010904/DTD/svg10.dtd">
<svg version="1.0" xmlns="http://www.w3.org/2000/svg"
 width="165.000000pt" height="120.000000pt" viewBox="0 0 165.000000 120.000000"
 preserveAspectRatio="xMidYMid meet">
<metadata>
Created by potrace 1.16, written by Peter Selinger 2001-2019
</metadata>
<g transform="translate(0.000000,120.000000) scale(0.100000,-0.100000)"
fill="#000000" stroke="none">
<path d="M1172 438 c-7 -7 -12 -17 -12 -24 0 -6 -7 -15 -16 -18 -9 -3 -14 -13
-11 -20 4 -11 -1 -13 -19 -10 -13 2 -38 -2 -56 -11 -39 -18 -123 -67 -134 -77
-4 -5 54 -8 129 -8 l136 0 3 86 c3 88 0 102 -20 82z"/>
</g>
</svg>
