<?xml version="1.0" standalone="no"?>
<!DOCTYPE svg PUBLIC "-//W3C//DTD SVG 20010904//EN"
 "http://www.w3.org/TR/2001/REC-SVG-20010904/DTD/svg10.dtd">
<svg version="1.0" xmlns="http://www.w3.org/2000/svg"
 width="299.000000pt" height="745.000000pt" viewBox="0 0 299.000000 745.000000"
 preserveAspectRatio="xMidYMid meet">
<metadata>
Created by potrace 1.16, written by Peter Selinger 2001-2019
</metadata>
<g transform="translate(0.000000,745.000000) scale(0.100000,-0.100000)"
fill="#000000" stroke="none">
<path d="M0 7441 c0 -9 672 -18 1840 -25 448 -3 673 -1 590 4 -150 9 -1615 30
-2112 30 -175 0 -318 -4 -318 -9z"/>
<path d="M163 6708 l2 -123 42 -3 c33 -2 44 1 52 16 13 24 5 32 -31 32 -24 0
-28 4 -28 29 0 25 4 30 27 33 17 2 29 10 31 21 3 13 -3 17 -27 17 -26 0 -31 4
-31 24 0 19 6 25 28 28 19 2 28 9 30 26 3 20 0 22 -47 22 l-50 0 2 -122z"/>
<path d="M477 6823 c-4 -3 -7 -60 -7 -125 0 -108 2 -119 18 -116 14 3 17 15
19 73 0 39 2 77 3 85 3 21 29 -98 30 -133 0 -44 24 -27 33 24 19 101 25 107
26 26 1 -69 3 -78 19 -75 15 3 17 17 17 123 l0 120 -25 0 c-22 0 -26 -6 -40
-70 l-16 -70 -8 45 c-16 98 -17 100 -40 100 -13 0 -26 -3 -29 -7z"/>
<path d="M685 6814 c-17 -12 -21 -29 -23 -103 -4 -80 -2 -91 17 -110 27 -27
53 -27 77 0 14 16 20 40 23 99 3 74 1 81 -23 104 -29 30 -43 32 -71 10z"/>
<path d="M807 6823 c-4 -3 -7 -60 -7 -125 0 -111 1 -118 20 -118 18 0 20 7 20
77 0 42 2 74 5 71 3 -3 11 -36 18 -74 7 -37 18 -69 24 -71 6 -2 13 18 17 47
12 91 25 103 25 23 1 -66 3 -73 21 -73 19 0 20 7 20 119 0 66 -4 122 -8 125
-5 3 -18 3 -30 0 -17 -5 -23 -19 -33 -77 l-13 -71 -12 67 c-7 37 -16 71 -19
77 -7 11 -38 13 -48 3z"/>
<path d="M1019 6822 l-26 -3 -1 -120 -1 -119 54 0 c48 0 53 2 48 20 -3 11 -9
21 -14 21 -5 1 -13 3 -19 4 -5 1 -15 3 -21 4 -6 0 -9 13 -7 29 2 22 8 27 31
26 22 -1 27 3 27 23 0 21 -4 24 -27 21 -24 -3 -28 1 -31 25 -3 25 -1 27 31 27
30 0 34 3 30 20 -3 11 -8 20 -12 21 -3 0 -13 1 -21 3 -8 1 -27 0 -41 -2z"/>
<path d="M1119 6716 c-1 -58 -2 -112 -3 -118 -1 -7 7 -14 17 -16 15 -3 17 6
18 75 l1 78 25 -77 c19 -62 28 -78 44 -78 18 0 19 8 19 120 0 100 -2 120 -15
120 -16 0 -18 -7 -15 -90 2 -68 -12 -59 -38 25 -11 39 -24 61 -35 63 -15 3
-17 -8 -18 -102z"/>
<path d="M1420 6800 c-17 -17 -20 -33 -20 -100 0 -72 3 -84 24 -105 30 -30 58
-24 81 19 25 45 18 172 -10 192 -26 19 -52 17 -75 -6z"/>
<path d="M1610 6705 c0 -63 -1 -118 -2 -122 -2 -5 18 -9 45 -11 45 -3 47 -2
47 22 0 22 -4 26 -30 26 -27 0 -30 3 -30 30 0 27 3 30 30 30 23 0 30 5 30 19
0 14 -8 21 -27 23 -20 2 -29 9 -31 26 -3 19 1 22 27 22 26 0 31 4 31 25 0 23
-4 25 -45 25 l-45 0 0 -115z"/>
<path d="M1750 6800 c-30 -30 -25 -65 18 -113 23 -25 37 -49 34 -60 -5 -25
-36 -17 -40 11 -4 29 -32 29 -32 -1 0 -30 27 -67 48 -67 34 1 57 29 57 70 0
33 -7 45 -38 74 -39 35 -45 50 -25 62 7 4 18 -2 26 -14 19 -29 32 -28 32 1 0
25 -28 57 -48 57 -7 0 -21 -9 -32 -20z"/>
<path d="M2083 6810 c-28 -11 -37 -45 -37 -132 0 -73 19 -108 56 -108 41 0 57
38 58 132 0 79 -2 88 -22 102 -25 18 -25 18 -55 6z"/>
<path d="M2253 6813 c-9 -3 -13 -33 -13 -101 1 -80 4 -101 19 -119 24 -28 55
-29 81 -3 17 17 20 33 20 118 0 103 -3 114 -26 105 -11 -4 -14 -28 -14 -103 0
-98 -9 -125 -33 -101 -8 8 -11 45 -10 106 3 93 -1 106 -24 98z"/>
<path d="M2380 6691 c0 -114 1 -121 20 -121 18 0 20 7 21 73 l1 72 15 -50 c8
-27 17 -60 20 -72 3 -14 13 -23 24 -23 18 0 19 9 19 120 0 100 -2 120 -15 120
-12 0 -15 -15 -15 -72 0 -83 -9 -81 -30 5 -13 50 -20 63 -38 65 -22 3 -22 1
-22 -117z"/>
<path d="M2592 6785 c-17 -36 -16 -176 2 -200 8 -12 25 -18 46 -17 40 1 40 1
47 53 5 32 3 41 -8 37 -7 -2 -16 -15 -19 -29 -9 -36 -40 -38 -41 -2 -3 139 1
163 27 142 8 -6 14 -18 14 -25 0 -18 26 -18 33 0 11 28 -17 61 -54 64 -30 3
-37 -1 -47 -23z"/>
<path d="M2740 6790 c-17 -17 -20 -33 -20 -104 0 -92 11 -116 54 -116 45 0 61
34 61 126 0 71 -3 85 -20 98 -27 21 -51 20 -75 -4z"/>
<path d="M779 6454 c-15 -18 -24 -118 -15 -167 7 -37 29 -52 86 -60 l35 -5 -3
107 c-2 58 -8 114 -13 123 -12 23 -72 24 -90 2z"/>
<path d="M910 6364 c0 -117 7 -134 60 -134 53 0 60 17 60 135 0 86 -2 96 -17
93 -21 -4 -20 -1 -22 -113 -1 -76 -3 -85 -20 -85 -24 0 -31 26 -31 123 0 62
-3 77 -15 77 -12 0 -15 -17 -15 -96z"/>
<path d="M1055 6448 c-2 -7 -3 -60 -2 -118 l2 -105 48 -1 c40 -2 47 1 47 17 0
14 -7 19 -30 19 -28 0 -30 3 -30 34 0 30 3 35 28 38 16 2 27 9 27 18 0 9 -11
16 -27 18 -22 3 -28 9 -28 28 0 13 6 25 13 25 6 1 19 2 27 3 8 0 16 9 18 19 3
14 -4 17 -43 17 -27 0 -47 -5 -50 -12z"/>
<path d="M1302 6343 c2 -97 6 -118 18 -118 12 0 14 12 12 60 -4 91 9 100 24
16 20 -113 26 -111 53 15 l20 89 0 -92 c1 -72 4 -93 15 -93 15 0 24 67 22 170
-1 63 -2 65 -28 68 -24 3 -27 -1 -33 -35 -13 -78 -17 -93 -24 -93 -5 0 -12 28
-17 63 -8 58 -11 62 -37 65 l-28 3 3 -118z"/>
<path d="M1490 6340 c0 -100 3 -120 15 -120 10 0 16 11 17 33 0 17 2 38 2 46
1 8 15 18 31 23 89 23 68 138 -25 138 l-40 0 0 -120z"/>
<path d="M1641 6434 c-29 -37 -31 -172 -3 -197 30 -28 69 -22 87 13 24 46 19
166 -8 191 -28 26 -52 24 -76 -7z"/>
<path d="M1770 6452 c-6 -2 -10 -51 -10 -119 0 -104 2 -114 18 -111 18 3 19 6
21 63 1 27 5 35 20 35 22 0 31 -19 31 -66 0 -23 5 -34 15 -34 11 0 14 20 13
110 0 61 -5 113 -10 116 -11 7 -83 11 -98 6z"/>
<path d="M2086 6434 c-3 -9 -6 -29 -6 -45 0 -17 -4 -38 -9 -48 -6 -10 -13 -41
-17 -69 -5 -43 -4 -52 9 -52 9 0 18 13 22 31 9 41 48 38 53 -3 2 -20 9 -28 23
-28 17 0 20 5 15 28 -3 15 -10 56 -16 92 -17 108 -18 110 -44 110 -13 0 -27
-7 -30 -16z"/>
<path d="M3 5395 l2 -650 35 -80 c19 -44 67 -145 108 -225 263 -515 266 -522
249 -633 -7 -50 -6 -92 3 -155 7 -48 16 -132 20 -187 5 -83 11 -111 38 -168
18 -38 40 -81 51 -95 14 -21 16 -33 9 -52 l-9 -25 21 23 c11 12 27 22 35 22 8
0 27 18 41 40 30 46 31 46 99 24 28 -9 55 -18 62 -20 7 -2 12 -21 11 -51 -1
-65 11 -133 29 -161 10 -16 11 -27 4 -36 -8 -9 -2 -11 24 -8 19 2 32 8 29 14
-3 5 1 17 9 26 8 9 17 30 21 45 4 15 10 25 15 23 5 -3 4 -25 -1 -48 -6 -24
-12 -73 -15 -111 -4 -64 -23 -87 -23 -28 0 37 -22 57 -40 36 -7 -8 -18 -12
-24 -7 -6 4 -18 7 -26 6 -8 -1 -32 -2 -52 -3 l-38 -1 0 -46 c0 -44 1 -45 28
-42 22 2 28 9 33 38 l6 35 2 -36 c1 -33 4 -37 26 -35 21 1 25 6 26 36 l1 35 7
-30 c3 -18 15 -34 29 -40 12 -5 22 -13 22 -17 0 -5 7 -8 15 -8 8 0 15 -6 15
-14 0 -8 4 -17 9 -20 4 -3 7 6 5 20 -2 22 1 25 18 21 11 -3 26 -3 34 0 15 6
48 107 69 216 8 40 24 98 35 130 24 68 45 370 34 495 -4 39 -4 72 0 72 12 0
68 -137 87 -214 11 -44 23 -84 28 -90 8 -11 22 -84 23 -121 0 -11 5 -49 10
-85 5 -36 12 -92 15 -125 6 -69 7 -79 17 -160 4 -33 10 -67 13 -75 4 -8 8 -24
9 -35 20 -131 22 -160 15 -165 -5 -3 -5 -32 0 -65 12 -84 39 -336 39 -360 0
-19 -4 -20 -72 -12 -180 19 -332 37 -334 40 -1 1 -4 70 -6 154 -3 105 -8 156
-17 167 -14 17 -36 23 -27 7 8 -12 -18 -21 -62 -21 -20 0 -46 -3 -58 -6 -20
-5 -20 -8 -8 -42 17 -48 17 -83 -1 -106 -8 -11 -15 -16 -15 -10 -1 5 -8 0 -18
-11 -23 -28 -77 -65 -94 -65 -25 0 -60 66 -59 112 0 56 8 92 21 96 23 8 7 18
-32 21 -23 1 -48 7 -55 13 -7 5 -20 7 -29 4 -14 -5 -15 -16 -10 -67 l7 -61
-33 4 c-18 3 -60 12 -93 21 -75 20 -258 47 -319 47 l-46 0 0 -1245 0 -1245
1493 0 1492 0 3 978 c2 626 0 982 -7 991 -7 11 -13 12 -23 4 -7 -7 -35 -17
-61 -23 -29 -8 -47 -18 -47 -27 0 -8 -4 -12 -9 -8 -11 6 -51 -33 -51 -51 0 -6
-7 -11 -16 -10 -9 0 -21 -8 -28 -19 -6 -11 -12 -22 -13 -24 -2 -2 -9 1 -16 8
-16 13 -43 5 -71 -21 -20 -18 -36 -16 -36 6 0 18 -72 27 -115 13 -19 -6 -35
-16 -35 -23 0 -8 -6 -11 -16 -7 -11 4 -12 8 -4 13 9 6 9 9 -1 16 -7 4 -14 3
-17 -4 -5 -17 -32 -15 -55 5 -11 10 -17 12 -13 6 5 -9 -1 -13 -18 -13 -14 0
-26 5 -26 11 0 5 5 7 10 4 6 -3 10 -1 10 5 0 7 -16 9 -50 4 -35 -5 -50 -3 -50
5 0 9 -5 9 -21 1 -11 -7 -23 -9 -26 -6 -9 9 18 36 36 36 18 0 61 27 61 39 0 4
-91 8 -202 9 -111 1 -204 5 -207 8 -12 11 27 24 75 24 46 0 144 29 102 30 -22
0 -24 30 -3 30 14 0 14 5 0 45 -4 11 -9 30 -11 43 -2 18 0 21 10 13 18 -15 27
-2 14 22 -9 17 -8 19 6 14 10 -4 16 -1 16 9 0 8 -7 17 -15 20 -22 9 -18 24 5
24 15 0 20 -7 20 -24 0 -14 3 -27 8 -29 4 -3 7 13 7 34 1 53 17 67 44 40 26
-26 47 -27 61 -2 14 27 13 41 -4 35 -16 -6 -36 24 -36 51 0 11 5 15 14 12 8
-3 22 4 33 15 15 18 15 20 2 15 -11 -4 -16 0 -15 11 0 10 -6 17 -14 16 -13 -1
-15 10 -13 65 1 36 5 80 7 96 l5 30 -13 -29 c-10 -21 -14 -24 -19 -13 -3 8 -3
18 1 22 4 4 7 23 7 43 1 21 2 66 3 101 l2 64 32 -7 c40 -8 41 -10 33 -36 -8
-26 -26 -22 -42 11 -11 21 -13 16 -12 -46 0 -79 17 -140 18 -67 1 30 5 42 16
42 8 0 18 14 23 33 l9 32 12 -38 c7 -22 11 -51 8 -65 -5 -24 0 -30 34 -46 l39
-19 21 26 c11 15 27 27 35 27 9 0 14 12 15 38 2 43 4 64 13 112 6 33 4 36 -28
52 -33 16 -36 16 -59 -3 -14 -10 -32 -19 -41 -19 -9 0 -16 -8 -16 -20 0 -11
-4 -20 -10 -20 -5 0 -10 7 -10 15 0 9 -9 25 -19 37 -18 19 -21 19 -41 5 -17
-12 -27 -13 -40 -4 -25 15 -79 -8 -62 -25 15 -15 15 -75 1 -84 -9 -5 -10 1 -5
19 5 21 3 25 -8 21 -8 -3 -17 -13 -19 -22 -3 -12 -5 -10 -6 6 0 12 4 22 9 22
6 0 10 11 10 24 0 18 -7 25 -27 29 -16 3 -37 13 -48 22 -19 15 -19 15 10 9 17
-4 40 -14 52 -22 20 -13 23 -12 29 3 4 10 1 21 -7 26 -10 6 -10 9 -1 9 6 0 12
7 12 15 0 18 16 20 24 3 5 -10 7 -10 12 0 3 6 15 12 26 12 11 0 18 5 15 13 -2
7 -23 12 -55 12 -58 1 -75 12 -70 46 3 24 5 24 161 30 87 4 161 9 164 12 2 3
-73 6 -168 6 -104 0 -177 5 -183 11 -7 7 5 10 38 10 45 0 48 1 42 23 -3 12 -6
25 -6 30 0 4 -5 7 -10 7 -6 0 -10 -8 -8 -17 2 -11 -3 -18 -12 -18 -10 0 -15
10 -15 33 0 24 -7 39 -25 52 -14 10 -22 22 -18 25 9 9 66 -24 96 -54 33 -35
49 -35 44 0 -4 26 -1 29 22 29 14 0 26 -6 26 -12 0 -7 5 -5 11 6 12 19 -1 36
-28 36 -21 0 -15 26 9 42 l22 15 -22 5 c-13 4 -28 0 -36 -7 -11 -12 -16 -12
-32 0 -14 10 -16 17 -8 25 8 8 14 9 18 1 13 -21 23 -11 20 22 -2 17 -1 24 2
15 6 -20 29 -24 39 -8 3 6 15 10 26 10 28 0 23 25 -6 26 -15 1 -25 -3 -25 -12
0 -8 -5 -14 -11 -14 -7 0 -9 9 -6 21 4 16 3 18 -9 8 -12 -9 -14 -6 -14 17 0
20 3 25 9 16 6 -10 10 -7 15 11 3 14 9 32 12 41 3 9 1 16 -5 16 -6 0 -11 -7
-11 -15 0 -19 -36 -39 -45 -25 -4 6 -1 17 5 25 10 12 8 16 -10 23 -41 15 145
87 250 97 19 2 60 10 90 19 30 9 66 19 80 21 62 11 214 55 223 64 14 14 -4 14
-58 1 -108 -26 -499 -64 -523 -51 -10 5 3 10 34 14 149 20 116 23 -161 19
-179 -3 -305 -9 -313 -15 -24 -19 -323 22 -353 49 -8 8 -27 14 -42 14 -14 0
-29 5 -32 10 -4 6 -16 8 -27 4 -15 -4 -19 -2 -15 7 2 8 11 12 18 10 59 -17 64
-8 9 15 -36 15 -74 34 -84 43 -16 13 -18 14 -14 1 6 -18 -8 -50 -22 -50 -6 0
-10 6 -10 14 0 7 -10 16 -22 20 -17 4 -20 8 -10 14 10 7 11 19 4 50 -5 22 -8
43 -5 46 3 2 -1 14 -7 26 -17 33 -31 11 -32 -49 0 -28 -2 -51 -4 -51 -3 0 -15
9 -27 21 -38 36 -64 50 -81 43 -13 -5 -16 -13 -11 -28 4 -11 8 -32 10 -46 1
-14 5 -33 9 -43 5 -10 3 -23 -4 -32 -9 -11 -9 -19 -2 -28 15 -18 -23 -82 -41
-70 -6 4 -25 8 -42 8 -22 1 -30 6 -29 18 1 9 -3 14 -9 10 -7 -4 -8 5 -3 28 18
84 19 99 6 99 -9 0 -7 6 5 20 10 11 24 20 32 20 7 0 13 5 13 11 0 6 9 8 21 4
18 -6 20 -4 14 15 -4 14 -3 20 3 16 5 -3 12 3 15 15 8 32 -45 60 -108 57 -46
-3 -50 -5 -53 -30 -4 -32 -32 -39 -32 -8 0 14 -5 18 -17 13 -10 -4 -21 -11
-25 -17 -5 -7 -8 -5 -8 5 0 34 -79 40 -110 9 -11 -11 -20 -33 -20 -49 0 -16
-3 -43 -6 -60 -6 -27 -4 -31 15 -31 19 0 21 5 21 60 0 77 18 79 22 3 l3 -58
35 0 c35 0 35 1 41 50 l6 50 1 -47 c2 -43 5 -48 29 -54 17 -5 28 -3 31 5 6 19
31 -20 32 -51 0 -37 -13 -42 -104 -43 l-79 0 -4 -45 c-6 -62 -13 -63 -13 -2 0
51 -1 52 -29 52 -16 0 -31 6 -34 13 -2 6 -3 64 -1 127 2 63 1 107 -2 97 -5
-17 -7 -17 -24 -2 -21 19 -16 47 6 38 8 -3 14 -1 14 5 0 6 3 19 6 29 5 15 4
15 -5 3 -15 -22 -24 -5 -23 40 1 22 -2 40 -7 40 -5 0 -8 6 -7 13 0 6 -3 12 -7
12 -5 0 -15 11 -22 25 -9 15 -15 19 -15 10 0 -11 -3 -10 -12 4 -8 15 -7 22 6
31 15 12 18 33 6 45 -3 3 -13 17 -22 32 -16 24 -16 27 -1 40 9 7 14 8 11 3 -4
-6 -3 -17 3 -25 7 -12 9 -11 9 6 0 11 5 25 11 31 8 8 6 13 -9 17 -21 7 -42 52
-35 74 7 18 21 15 25 -5 3 -10 5 1 6 24 0 28 -5 49 -16 59 -10 11 -15 30 -13
53 2 35 -1 42 -49 98 -5 7 -7 19 -4 27 3 8 -15 50 -41 95 -25 44 -47 90 -47
103 -1 13 -6 28 -10 35 -10 12 10 53 25 53 4 0 5 5 2 10 -5 8 -11 7 -21 -1
-11 -9 -14 -7 -14 9 0 11 6 22 13 25 8 3 3 11 -13 25 -14 11 -27 18 -30 15 -3
-3 1 -8 8 -10 6 -3 12 -14 11 -26 0 -17 -4 -14 -16 13 -8 19 -19 43 -24 52 -5
10 -9 25 -9 33 0 9 -10 33 -22 54 -26 45 -20 78 12 61 19 -10 20 -9 14 17 -4
15 -10 32 -15 37 -5 6 -2 18 8 28 14 16 15 23 3 58 -7 22 -20 40 -28 40 -9 0
-13 7 -9 20 4 15 0 20 -15 20 -10 0 -17 -4 -13 -9 3 -5 0 -13 -6 -17 -12 -7
-9 30 6 67 3 9 -1 23 -9 32 -19 18 -21 38 -5 35 23 -5 19 19 -7 47 -15 16 -22
31 -16 33 12 4 4 33 -12 44 -7 5 -4 8 7 8 24 0 21 21 -4 27 -14 4 -19 12 -16
24 3 11 1 22 -4 25 -5 3 -7 9 -5 12 7 12 -12 100 -30 137 -9 19 -14 41 -11 48
3 8 -4 22 -15 31 -12 11 -18 25 -15 37 3 11 -1 35 -8 52 -13 28 -14 -55 -12
-618z m763 -1892 c-1 -43 -8 -89 -15 -103 -21 -38 -50 -62 -68 -56 -17 7 -15
53 10 161 12 52 16 60 35 58 12 -2 22 2 22 7 0 6 4 10 9 10 4 0 8 -35 7 -77z
m833 39 c11 11 12 10 6 -1 -6 -11 -2 -13 21 -7 17 4 24 3 16 -2 -9 -6 -5 -12
14 -21 23 -10 26 -9 21 4 -4 10 0 15 11 15 15 0 15 2 2 10 -11 8 -7 9 15 4 35
-8 57 -24 32 -24 -10 0 -17 -8 -17 -20 0 -11 7 -20 15 -20 9 0 15 -9 15 -22
l1 -23 19 24 c17 20 21 21 26 7 5 -12 10 -14 19 -6 9 8 14 6 19 -6 4 -9 12
-14 21 -10 13 4 13 2 5 -14 -6 -11 -15 -20 -20 -20 -6 0 -10 -4 -10 -10 0 -5
3 -9 8 -9 4 1 15 1 24 0 17 -1 17 -2 1 -20 -18 -22 -43 -17 -43 8 0 10 -6 26
-14 37 -12 15 -17 16 -27 7 -10 -10 -9 -16 1 -28 12 -14 11 -18 -1 -26 -12 -8
-11 -11 4 -23 9 -7 17 -22 17 -33 0 -24 -45 -57 -66 -49 -22 9 -16 -12 7 -25
18 -9 24 -8 31 4 19 34 39 47 57 37 10 -5 22 -6 27 -2 5 4 3 0 -3 -8 -14 -19
-15 -97 -2 -106 6 -4 7 -10 0 -17 -11 -14 -11 -15 -11 -67 0 -29 -4 -40 -15
-40 -8 0 -15 -5 -15 -10 0 -6 6 -9 12 -8 7 2 14 -8 16 -21 2 -13 10 -31 18
-38 18 -19 7 -38 -12 -22 -8 6 -14 18 -14 27 0 11 -5 10 -19 -7 -34 -39 -95
-82 -109 -76 -8 3 -16 -3 -19 -15 -4 -14 -11 -19 -23 -15 -12 4 -20 0 -23 -12
-4 -14 -5 -15 -6 -2 -1 21 46 72 59 64 6 -3 10 3 10 13 0 12 9 22 21 25 12 3
18 10 14 16 -7 12 -72 15 -77 4 -3 -8 -88 -54 -88 -48 0 2 4 15 10 29 6 17 6
26 0 26 -6 0 -10 5 -10 11 0 6 6 9 14 6 10 -4 17 7 24 36 l11 42 -25 -28 c-14
-17 -31 -27 -39 -23 -21 8 -31 -15 -11 -26 9 -5 14 -13 11 -19 -13 -20 -24 -7
-36 41 -12 47 -14 49 -31 33 -17 -15 -18 -14 -18 15 0 17 6 32 13 35 9 3 9 7
-1 20 -22 27 -9 42 32 39 36 -4 37 -3 30 25 -4 15 -8 30 -10 32 -2 2 1 10 7
18 17 19 -30 64 -58 57 -22 -6 -39 -47 -27 -66 12 -18 -19 -28 -33 -10 -11 15
-12 15 -13 -5 0 -13 -6 -23 -14 -23 -17 0 -21 5 -30 43 -5 23 -3 27 14 27 11
0 20 5 20 11 0 5 5 7 10 4 6 -4 10 7 10 24 0 34 14 40 29 14 9 -16 10 -16 11
5 0 15 -6 22 -20 22 -11 0 -20 5 -20 10 0 6 4 10 10 10 5 0 14 16 19 36 6 20
18 45 27 55 10 11 15 21 13 22 -2 2 -15 12 -29 21 l-25 18 25 -5 c14 -3 36 -8
48 -11 23 -5 23 -4 8 19 -15 23 -15 24 14 30 21 5 27 11 23 23 -3 11 1 9 14
-6 15 -18 21 -20 32 -10z m981 -2310 c0 -4 -4 -12 -10 -17 -6 -7 31 -9 99 -8
l109 3 4 -25 c3 -14 3 -27 -1 -29 -3 -1 -33 -2 -66 -2 -54 1 -60 3 -66 26 -7
24 -10 22 -13 -10 0 -9 -9 -14 -20 -12 -12 2 -17 -1 -14 -10 3 -7 2 -22 -2
-33 -4 -11 -3 -26 2 -32 8 -9 6 -13 -5 -13 -12 0 -17 12 -19 47 -2 26 -9 48
-15 51 -7 2 -13 -1 -13 -8 0 -6 5 -8 10 -5 6 3 10 -4 10 -17 0 -16 -3 -19 -8
-10 -5 7 -16 10 -24 7 -18 -7 -48 19 -48 41 0 19 18 54 28 54 5 0 7 -15 6 -32
-1 -21 0 -24 3 -8 5 32 53 70 53 42z"/>
<path d="M1383 4053 c-19 -3 -33 -10 -33 -18 0 -22 -20 -28 -34 -10 -11 15
-13 15 -30 -4 -13 -14 -21 -46 -27 -103 -5 -46 -13 -100 -18 -121 -9 -38 -8
-39 27 -60 21 -12 39 -22 42 -22 3 0 11 -4 18 -8 14 -10 35 0 27 13 -7 11 12
23 25 15 7 -4 7 -13 0 -26 -9 -16 -8 -18 7 -16 10 2 34 11 54 19 20 9 50 19
68 23 18 4 31 13 31 21 0 9 -5 12 -12 8 -8 -5 -9 -2 -5 9 5 12 1 17 -13 17
-11 0 -34 13 -52 29 -27 25 -31 32 -20 43 7 7 13 9 12 3 -5 -23 1 -25 22 -6
20 20 21 22 4 40 -11 12 -14 21 -7 26 6 3 11 3 11 -2 0 -4 11 -13 25 -20 21
-9 25 -9 25 4 0 8 4 12 8 9 5 -3 7 -20 6 -38 -3 -30 -3 -30 5 -8 5 14 6 35 4
47 -3 15 1 23 14 26 12 3 9 5 -9 6 -16 0 -28 6 -28 12 0 5 -4 8 -9 5 -5 -3
-14 1 -21 10 -9 10 -22 13 -41 9 -15 -3 -30 -1 -34 4 -3 7 2 11 14 11 11 0 23
5 26 10 3 6 1 10 -4 10 -6 0 -11 7 -11 16 0 8 -4 12 -10 9 -5 -3 -10 -1 -10 4
0 6 -3 10 -7 9 -5 0 -23 -3 -40 -5z"/>
<path d="M1897 3972 c-11 -12 -15 -26 -11 -37 5 -13 4 -16 -4 -11 -8 5 -12 -2
-12 -21 -1 -24 -2 -25 -11 -11 -5 10 -9 24 -8 30 1 7 1 22 0 32 -1 18 -2 18
-20 2 -18 -16 -38 -79 -32 -101 2 -5 4 -25 6 -43 1 -18 7 -38 14 -45 6 -6 11
-16 11 -22 0 -5 -5 -3 -10 5 -8 11 -10 -2 -9 -45 2 -66 7 -85 20 -85 5 0 9 40
9 89 l0 88 137 14 137 14 -28 30 c-17 18 -25 36 -22 49 8 33 -21 76 -52 76
-15 0 -43 3 -62 6 -27 5 -39 1 -53 -14z"/>
<path d="M2840 3888 c0 -9 7 -21 16 -26 9 -5 14 -18 12 -33 -2 -20 -9 -24 -43
-26 -22 0 -92 12 -155 28 -80 21 -159 33 -260 40 -170 11 -200 7 -200 -26 0
-13 5 -27 10 -30 6 -3 10 -16 10 -28 0 -17 -6 -23 -27 -25 -33 -3 -40 -9 -46
-42 -4 -24 -4 -24 -6 3 -1 21 -6 27 -23 26 -17 -1 -19 -2 -5 -6 10 -3 17 -14
17 -30 0 -19 -4 -24 -16 -19 -14 5 -15 4 -4 -9 7 -8 18 -15 26 -15 7 0 16 -5
20 -12 4 -7 3 -8 -4 -4 -7 4 -12 2 -12 -3 0 -13 1 -13 117 -13 179 2 438 53
544 108 36 18 39 18 39 -5 0 -13 -9 -22 -27 -26 -32 -7 -69 -32 -61 -41 3 -3
24 4 47 16 23 11 41 16 41 10 0 -5 5 -10 10 -10 6 0 10 9 10 19 0 10 14 45 30
76 34 64 37 80 15 89 -11 4 -15 -1 -15 -17 -1 -20 -3 -19 -30 13 -21 25 -30
30 -30 18z"/>
<path d="M486 2945 c4 -8 10 -13 14 -10 4 3 5 -10 0 -28 -14 -63 4 -115 42
-121 26 -4 38 -18 38 -46 0 -26 3 -28 48 -32 84 -6 109 0 117 29 7 31 5 34
-31 34 -54 0 -79 -7 -76 -24 3 -21 -18 -33 -29 -16 -4 7 -4 16 1 19 5 3 12 18
15 33 7 26 5 27 -19 23 -14 -3 -26 -1 -26 4 0 5 8 9 18 9 57 1 67 6 65 34 -1
15 2 27 8 27 5 0 9 7 9 15 0 11 -10 14 -40 13 -45 -1 -50 1 -53 30 -1 16 -8
20 -29 20 -17 -1 -25 -5 -21 -12 3 -6 0 -5 -8 2 -19 17 -50 16 -43 -3z"/>
<path d="M2549 2854 c-7 -9 -22 -13 -33 -10 -27 6 -67 -21 -48 -33 8 -4 11
-18 8 -32 -19 -100 -31 -145 -40 -151 -7 -5 -5 -13 6 -25 17 -16 19 -16 33 2
8 11 14 29 15 40 0 11 5 55 12 98 10 66 14 77 31 77 18 0 19 -5 13 -52 -13
-98 -14 -105 -21 -127 -3 -11 -2 -21 3 -21 20 0 33 30 37 86 4 55 11 99 21
135 6 22 -21 32 -37 13z"/>
</g>
</svg>
