<?xml version="1.0" standalone="no"?>
<!DOCTYPE svg PUBLIC "-//W3C//DTD SVG 20010904//EN"
 "http://www.w3.org/TR/2001/REC-SVG-20010904/DTD/svg10.dtd">
<svg version="1.0" xmlns="http://www.w3.org/2000/svg"
 width="246.000000pt" height="120.000000pt" viewBox="0 0 246.000000 120.000000"
 preserveAspectRatio="xMidYMid meet">
<metadata>
Created by potrace 1.16, written by Peter Selinger 2001-2019
</metadata>
<g transform="translate(0.000000,120.000000) scale(0.100000,-0.100000)"
fill="#000000" stroke="none">
<path d="M0 917 l0 -283 166 -53 c98 -32 169 -50 173 -44 13 20 201 184 202
176 0 -4 5 1 10 12 7 17 8 17 6 2 -1 -10 -5 -18 -9 -18 -10 1 -58 -44 -58 -53
0 -4 5 -4 12 0 7 4 8 3 4 -5 -4 -6 -12 -9 -17 -6 -5 4 -14 3 -20 -1 -8 -5 -8
-9 1 -14 7 -5 2 -13 -16 -24 -14 -10 -23 -12 -19 -5 5 8 4 10 -4 5 -9 -6 -8
-14 5 -34 15 -24 16 -25 1 -14 -24 20 -53 -9 -38 -36 6 -11 7 -22 3 -26 -3 -4
2 -4 11 0 10 4 16 13 13 20 -3 8 1 14 10 14 8 0 13 -4 10 -9 -3 -4 1 -17 9
-27 8 -10 14 -30 14 -44 0 -25 0 -25 -9 -2 -11 26 -35 29 -44 6 -11 -28 -6
-39 19 -51 14 -6 23 -7 19 -2 -3 5 2 6 10 3 9 -3 13 -11 9 -17 -4 -6 2 -8 15
-5 15 4 22 2 22 -8 0 -17 8 -18 -80 10 l-74 25 -41 -36 c-22 -20 -83 -76 -135
-124 -52 -48 -114 -104 -137 -124 -38 -33 -43 -42 -43 -81 l0 -44 803 1 802 0
-55 20 c-30 11 -64 25 -75 30 -16 8 -15 8 8 4 19 -4 26 -2 22 5 -3 5 -1 10 4
10 6 0 11 -4 11 -10 0 -5 10 -10 23 -10 15 0 26 9 35 30 8 16 19 30 25 30 7 0
92 -25 190 -55 l178 -55 245 0 244 0 0 600 0 600 -622 0 -623 -1 -45 -40 c-25
-23 -88 -81 -140 -129 -52 -48 -111 -100 -130 -116 -19 -16 -43 -38 -52 -49
-10 -12 -17 -15 -18 -7 0 6 5 12 10 12 6 0 10 5 10 12 0 9 -3 9 -12 0 -15 -15
-31 -16 -22 0 4 7 3 8 -4 4 -7 -4 -12 -2 -12 3 0 19 -42 12 -61 -10 -10 -12
-23 -19 -30 -17 -12 4 39 55 229 228 61 56 112 104 112 106 0 2 -236 4 -525 4
l-525 0 0 -283z m640 -62 c0 -17 21 -20 36 -5 5 5 24 6 46 1 27 -6 40 -5 48 4
13 15 35 14 52 -3 7 -7 34 -12 60 -12 47 0 48 -1 48 -30 0 -16 -4 -30 -10 -30
-5 0 -10 9 -10 20 0 11 -4 20 -10 20 -5 0 -10 -9 -10 -20 0 -11 -4 -20 -10
-20 -5 0 -10 9 -10 20 0 11 -4 20 -10 20 -5 0 -10 -10 -10 -21 0 -20 -4 -21
-45 -16 -24 4 -47 3 -49 -2 -3 -5 -28 -8 -56 -8 -46 1 -50 3 -51 26 l-2 26 -4
-25 c-3 -14 -10 -28 -17 -32 -6 -4 18 -8 54 -8 82 0 114 -15 118 -56 2 -18 -3
-36 -12 -43 -13 -11 -12 -15 5 -32 24 -24 24 -50 1 -78 -15 -19 -28 -22 -97
-24 l-80 -2 -5 125 c-3 69 -8 117 -12 108 -4 -10 -13 -18 -19 -18 -7 0 -3 10
9 23 15 16 22 36 22 65 0 31 4 42 15 42 8 0 15 -7 15 -15z m1178 -70 c1 -1 7
-27 11 -56 l9 -54 -76 -77 c-41 -43 -80 -78 -85 -78 -14 0 -127 112 -127 125
0 6 35 46 78 87 l78 76 54 -10 c30 -5 56 -11 58 -13z m-938 -120 l0 -95 53 0
52 0 44 95 c37 82 47 95 68 95 20 0 30 -13 66 -91 l42 -91 0 61 c0 52 4 64 26
87 31 31 103 43 139 24 16 -9 25 -9 33 -1 6 6 21 11 34 11 21 0 23 -5 23 -45
0 -25 4 -45 9 -45 5 0 27 20 49 45 32 36 46 45 73 45 l33 0 -47 -48 c-26 -26
-47 -57 -47 -68 0 -11 20 -40 45 -64 25 -24 45 -48 45 -52 0 -4 -12 -8 -27 -8
-19 0 -40 14 -74 50 -26 28 -50 50 -53 50 -3 0 -6 -23 -6 -51 0 -49 -1 -50
-27 -47 l-28 3 -6 105 c-3 58 -6 97 -7 87 -2 -15 -9 -17 -51 -11 -43 6 -50 4
-65 -17 -9 -13 -16 -35 -16 -49 0 -14 7 -36 16 -49 15 -21 22 -23 65 -17 45 6
49 5 49 -14 0 -44 -88 -53 -144 -15 -30 20 -35 22 -27 6 12 -22 5 -31 -26 -31
-16 0 -27 8 -33 25 -9 22 -15 25 -63 25 -48 0 -55 -3 -65 -25 -11 -24 -16 -25
-96 -25 -46 0 -91 3 -100 6 -13 5 -16 25 -16 120 l0 114 30 0 30 0 0 -95z
m-200 -201 l35 -44 3 45 c3 37 7 45 23 45 16 0 19 -7 19 -54 0 -29 3 -68 6
-85 6 -27 4 -31 -16 -31 -14 0 -36 15 -56 38 l-33 37 -1 -36 c0 -31 -4 -37
-25 -41 l-25 -5 0 88 c0 78 2 89 18 89 9 -1 33 -21 52 -46z m225 23 c50 -42
29 -138 -31 -150 -59 -11 -104 25 -104 84 0 78 78 116 135 66z m82 -34 l26
-57 25 57 25 57 77 0 c58 0 79 -4 83 -14 8 -20 -2 -26 -40 -26 -23 0 -33 -5
-33 -15 0 -10 11 -15 35 -15 24 0 35 -5 35 -15 0 -10 -11 -15 -35 -15 -28 0
-35 -4 -35 -20 0 -17 7 -20 41 -20 64 0 44 -24 -24 -28 l-56 -3 -3 78 -3 78
-39 -77 c-26 -53 -44 -78 -56 -78 -15 0 -43 50 -87 158 -3 7 3 12 16 12 17 0
28 -13 48 -57z m297 35 c3 -13 15 -34 25 -48 l19 -24 23 47 c15 30 29 47 41
47 16 0 18 -10 18 -85 0 -78 -2 -85 -20 -85 -17 0 -20 7 -20 43 l-1 42 -15
-27 c-18 -34 -47 -36 -62 -5 -10 20 -11 19 -11 -15 -1 -31 -5 -38 -21 -38 -18
0 -20 7 -20 85 0 77 2 85 19 85 11 0 21 -9 25 -22z m257 3 c21 -18 23 -22 11
-42 -10 -15 -11 -24 -3 -32 18 -18 13 -55 -8 -67 -11 -5 -42 -10 -70 -10 l-51
0 0 85 0 85 49 0 c33 0 56 -6 72 -19z m277 3 c26 -18 28 -41 7 -70 -12 -19
-12 -24 0 -40 20 -27 18 -44 -5 -44 -12 0 -26 12 -35 30 -9 17 -22 30 -30 30
-10 0 -15 -10 -15 -30 0 -23 -4 -30 -20 -30 -18 0 -20 7 -20 85 l0 85 48 0
c27 0 57 -7 70 -16z"/>
<path d="M0 381 c0 -78 3 -141 6 -141 4 0 29 20 56 46 27 26 53 42 60 38 6 -4
8 -3 5 3 -4 6 18 34 48 61 30 28 55 53 55 55 0 3 -45 19 -100 36 -55 17 -106
34 -115 37 -13 5 -15 -12 -15 -135z"/>
</g>
</svg>
