<?xml version="1.0" standalone="no"?>
<!DOCTYPE svg PUBLIC "-//W3C//DTD SVG 20010904//EN"
 "http://www.w3.org/TR/2001/REC-SVG-20010904/DTD/svg10.dtd">
<svg version="1.0" xmlns="http://www.w3.org/2000/svg"
 width="32.000000pt" height="32.000000pt" viewBox="0 0 32.000000 32.000000"
 preserveAspectRatio="xMidYMid meet">
<metadata>
Created by potrace 1.16, written by Peter Selinger 2001-2019
</metadata>
<g transform="translate(0.000000,32.000000) scale(0.100000,-0.100000)"
fill="#000000" stroke="none">
<path d="M260 134 c0 -46 -38 -74 -101 -74 -40 0 -55 5 -79 29 -20 18 -28 34
-24 45 4 12 0 16 -15 16 -20 0 -22 -4 -19 -62 l3 -63 130 -3 c151 -3 155 -1
155 84 0 47 -2 52 -25 56 -23 5 -25 2 -25 -28z"/>
</g>
</svg>
