<?xml version="1.0" standalone="no"?>
<!DOCTYPE svg PUBLIC "-//W3C//DTD SVG 20010904//EN"
 "http://www.w3.org/TR/2001/REC-SVG-20010904/DTD/svg10.dtd">
<svg version="1.0" xmlns="http://www.w3.org/2000/svg"
 width="32.000000pt" height="32.000000pt" viewBox="0 0 32.000000 32.000000"
 preserveAspectRatio="xMidYMid meet">
<metadata>
Created by potrace 1.16, written by Peter Selinger 2001-2019
</metadata>
<g transform="translate(0.000000,32.000000) scale(0.100000,-0.100000)"
fill="#000000" stroke="none">
<path d="M0 160 l0 -160 90 0 90 0 0 65 c0 63 -1 65 -25 65 -18 0 -25 5 -25
20 0 15 7 20 25 20 22 0 25 4 25 34 0 40 22 66 56 66 17 0 24 -5 24 -20 0 -13
-7 -20 -20 -20 -16 0 -20 -7 -20 -30 0 -23 4 -30 20 -30 13 0 20 -7 20 -20 0
-13 -7 -20 -20 -20 -18 0 -20 -7 -20 -65 l0 -65 50 0 50 0 0 160 0 160 -160 0
-160 0 0 -160z"/>
</g>
</svg>
