<?xml version="1.0" standalone="no"?>
<!DOCTYPE svg PUBLIC "-//W3C//DTD SVG 20010904//EN"
 "http://www.w3.org/TR/2001/REC-SVG-20010904/DTD/svg10.dtd">
<svg version="1.0" xmlns="http://www.w3.org/2000/svg"
 width="1600.000000pt" height="474.000000pt" viewBox="0 0 1600.000000 474.000000"
 preserveAspectRatio="xMidYMid meet">
<metadata>
Created by potrace 1.16, written by Peter Selinger 2001-2019
</metadata>
<g transform="translate(0.000000,474.000000) scale(0.100000,-0.100000)"
fill="#000000" stroke="none">
<path d="M495 4638 c-190 -36 -359 -208 -394 -402 -15 -83 -15 -3649 0 -3732
36 -198 205 -367 403 -403 84 -15 14908 -15 14992 0 198 36 367 205 403 403
15 83 15 3649 0 3732 -36 198 -205 367 -403 403 -78 14 -14927 13 -15001 -1z
m5673 -727 c43 -22 96 -78 107 -111 8 -26 11 -22 -48 -48 l-48 -21 -8 22 c-41
106 -231 92 -231 -17 0 -45 37 -74 140 -110 167 -59 226 -128 218 -251 -3 -47
-11 -73 -30 -103 -60 -90 -225 -127 -328 -73 -74 38 -111 79 -140 156 -9 24
-7 27 33 45 54 25 64 25 73 -2 32 -106 168 -149 246 -79 25 22 30 34 30 70 -1
27 -8 51 -19 63 -22 24 -90 59 -159 82 -119 39 -184 110 -184 201 0 91 59 163
160 196 39 13 145 2 188 -20z m1318 -11 c74 -36 146 -110 182 -188 24 -50 27
-70 27 -157 0 -87 -3 -107 -27 -157 -140 -299 -553 -300 -690 -2 -20 41 -23
66 -23 159 0 124 15 172 80 250 105 129 299 169 451 95z m-2204 -13 c72 -35
130 -93 165 -165 25 -52 28 -67 28 -167 0 -100 -3 -115 -28 -167 -35 -72 -93
-130 -165 -165 -55 -27 -65 -28 -229 -31 l-173 -4 0 367 0 367 173 -4 c164 -3
174 -4 229 -31z m418 -332 l0 -365 -55 0 -55 0 0 365 0 365 55 0 55 0 0 -365z
m1065 346 c76 -34 135 -123 135 -201 0 -49 -22 -102 -58 -142 -56 -62 -99 -78
-214 -78 l-98 0 0 -145 0 -145 -60 0 -60 0 0 365 0 365 158 0 c130 0 164 -4
197 -19z m1331 -236 l159 -255 3 255 2 255 60 0 60 0 0 -365 0 -365 -59 0 -60
0 -168 270 -168 269 -3 -269 -2 -270 -60 0 -60 0 0 365 0 365 68 0 69 0 159
-255z m534 -110 l0 -365 -55 0 -55 0 0 365 0 365 55 0 55 0 0 -365z m493 352
c44 -19 95 -63 114 -101 24 -47 21 -135 -6 -180 -12 -20 -30 -40 -38 -45 -14
-7 -11 -14 20 -40 106 -94 80 -256 -52 -323 -53 -27 -59 -28 -223 -28 l-168 0
0 365 0 365 160 0 c112 0 170 -4 193 -13z m367 -297 l0 -310 155 0 155 0 0
-55 0 -55 -210 0 -210 0 0 365 0 365 55 0 55 0 0 -310z m840 255 l0 -55 -160
0 -160 0 0 -100 0 -100 145 0 145 0 0 -55 0 -55 -145 0 -145 0 0 -100 0 -100
160 0 160 0 0 -55 0 -55 -220 0 -220 0 0 365 0 365 220 0 220 0 0 -55z m800 0
l0 -55 -160 0 -160 0 0 -100 0 -100 145 0 145 0 0 -55 0 -55 -145 0 -145 0 0
-100 0 -100 160 0 160 0 0 -55 0 -55 -220 0 -220 0 0 365 0 365 220 0 220 0 0
-55z m414 -208 l161 -257 3 260 2 260 55 0 55 0 0 -365 0 -365 -57 0 -58 0
-170 273 -170 272 -3 -272 -2 -273 -55 0 -55 0 0 365 0 366 67 -3 66 -3 161
-258z m-10116 219 c22 -8 323 -175 668 -371 346 -197 876 -497 1179 -669 337
-191 564 -325 586 -348 73 -72 73 -162 1 -233 -21 -21 -170 -113 -342 -211
l-305 -173 -250 249 -250 250 -735 -735 c-404 -404 -739 -735 -743 -735 -4 0
-18 21 -30 48 l-22 47 0 1375 0 1375 25 50 c44 87 119 116 218 81z m4433
-1181 c109 -29 250 -107 308 -169 l25 -27 -69 -69 c-38 -39 -73 -70 -78 -70
-5 0 -26 13 -47 30 -92 73 -215 114 -341 113 -161 -1 -277 -49 -390 -162 -117
-117 -169 -242 -169 -408 0 -239 144 -446 370 -532 57 -22 80 -25 195 -25 108
0 140 4 189 22 113 42 219 130 265 220 18 36 51 141 51 164 0 4 -115 8 -255 8
l-255 0 0 110 0 110 359 0 360 0 7 -57 c8 -70 -1 -197 -22 -283 -43 -185 -176
-350 -349 -435 -207 -103 -481 -104 -694 -5 -302 142 -490 470 -451 788 44
349 289 613 640 688 81 17 271 11 351 -11z m4149 -770 l0 -746 -107 3 -108 3
-3 730 c-1 402 0 736 3 743 3 8 35 12 110 12 l105 0 0 -745z m2211 717 c218
-72 340 -248 326 -470 -9 -151 -97 -287 -233 -359 -105 -56 -148 -63 -361 -63
l-193 0 -2 -282 -3 -283 -107 -3 -108 -3 0 747 0 746 308 -4 c282 -4 312 -6
373 -26z m674 -717 l0 -740 -110 0 -110 0 -3 730 c-1 402 0 736 3 743 3 9 32
12 112 10 l108 -3 0 -740z m725 210 c68 -24 122 -59 167 -108 93 -101 103
-150 103 -534 l0 -303 -110 0 -110 0 0 57 0 57 -34 -40 c-19 -22 -58 -53 -87
-69 -51 -28 -61 -30 -164 -30 -105 0 -114 2 -177 33 -121 59 -188 160 -188
282 0 139 88 251 240 305 118 42 266 40 367 -5 l43 -19 0 30 c0 58 -53 125
-122 153 -46 20 -167 21 -211 2 -18 -7 -47 -30 -65 -50 l-33 -38 -95 39 c-51
21 -94 43 -94 49 0 17 53 87 91 118 55 47 151 87 226 94 84 9 193 -1 253 -23z
m-6517 10 c90 -23 157 -62 228 -134 76 -76 112 -145 135 -251 66 -313 -167
-600 -486 -601 -240 -2 -428 136 -494 360 -23 78 -21 213 4 293 51 165 187
293 353 334 72 17 192 17 260 -1z m1102 0 c308 -81 463 -419 324 -710 -82
-173 -252 -276 -454 -276 -383 0 -619 383 -449 729 61 124 178 219 315 256 72
19 191 20 264 1z m1100 -14 c28 -12 67 -35 88 -52 l37 -30 0 41 0 40 106 0
105 0 -3 -522 c-4 -473 -6 -528 -22 -578 -44 -134 -117 -224 -220 -275 -188
-92 -419 -60 -565 80 -60 57 -119 151 -105 165 5 5 47 24 93 43 l85 35 26 -42
c83 -130 239 -171 371 -100 87 48 129 137 129 275 l0 61 -42 -36 c-119 -103
-324 -105 -478 -6 -317 203 -308 676 16 866 116 68 273 82 379 35z m1416 13
c120 -35 225 -133 291 -269 22 -47 39 -87 37 -89 -3 -4 -237 -101 -576 -241
-51 -21 -93 -41 -93 -45 0 -4 20 -30 45 -58 108 -120 296 -116 409 8 l38 42
84 -56 85 -57 -20 -27 c-67 -95 -207 -176 -326 -191 -273 -33 -506 128 -561
388 -18 84 -17 139 1 226 49 230 230 383 456 384 41 1 100 -6 130 -15z m3554
-336 c71 -174 132 -315 135 -313 3 2 62 146 130 319 l124 316 124 0 c68 0 121
-3 119 -7 -2 -5 -138 -317 -303 -695 l-298 -688 -113 0 c-62 0 -113 2 -113 5
0 3 48 112 107 243 58 130 106 242 106 247 0 6 -86 207 -191 447 -106 240
-192 439 -192 442 0 4 53 5 117 4 l118 -3 130 -317z"/>
<path d="M7263 3820 c-224 -53 -273 -378 -75 -497 181 -108 392 17 392 232 0
179 -151 305 -317 265z"/>
<path d="M5000 3555 l0 -255 84 0 c135 0 208 36 252 126 32 66 35 181 6 246
-43 97 -120 138 -259 138 l-83 0 0 -255z"/>
<path d="M6530 3700 l0 -110 91 0 c91 0 91 0 126 35 33 33 35 39 30 82 -4 37
-12 54 -36 75 -29 26 -37 28 -121 28 l-90 0 0 -110z"/>
<path d="M8880 3715 l0 -95 101 0 c98 0 101 1 130 29 21 22 29 39 29 66 0 27
-8 44 -29 66 -29 28 -32 29 -130 29 l-101 0 0 -95z"/>
<path d="M8888 3504 c-5 -4 -8 -52 -8 -106 l0 -98 100 0 c110 0 145 11 166 51
22 44 17 85 -15 121 -29 33 -30 33 -133 36 -56 2 -106 0 -110 -4z"/>
<path d="M11760 2206 l0 -256 168 0 c195 0 246 11 310 66 86 74 114 188 70
285 -29 63 -71 108 -125 135 -32 16 -66 19 -230 22 l-193 4 0 -256z"/>
<path d="M13383 1626 c-64 -16 -98 -38 -123 -79 -47 -77 -10 -155 86 -183 93
-27 199 7 266 85 37 43 64 110 55 134 -15 39 -194 66 -284 43z"/>
<path d="M6860 1939 c-99 -44 -160 -138 -168 -255 -6 -99 15 -168 73 -232 61
-68 121 -96 205 -96 145 1 256 100 280 249 31 190 -99 355 -280 355 -44 0 -80
-7 -110 -21z"/>
<path d="M7971 1943 c-55 -20 -126 -89 -154 -151 -30 -66 -30 -198 0 -263 85
-188 327 -233 459 -87 60 67 79 120 79 218 -1 127 -45 210 -142 267 -58 34
-174 42 -242 16z"/>
<path d="M9065 1936 c-62 -28 -128 -101 -149 -163 -18 -53 -21 -160 -6 -215
16 -57 70 -130 120 -160 214 -131 450 53 408 319 -30 191 -208 296 -373 219z"/>
<path d="M10550 1961 c-81 -25 -142 -75 -178 -146 -22 -44 -39 -135 -26 -135
12 0 427 171 437 180 5 4 -6 24 -23 44 -46 52 -141 78 -210 57z"/>
</g>
</svg>
