<?xml version="1.0" standalone="no"?>
<!DOCTYPE svg PUBLIC "-//W3C//DTD SVG 20010904//EN"
 "http://www.w3.org/TR/2001/REC-SVG-20010904/DTD/svg10.dtd">
<svg version="1.0" xmlns="http://www.w3.org/2000/svg"
 width="32.000000pt" height="32.000000pt" viewBox="0 0 32.000000 32.000000"
 preserveAspectRatio="xMidYMid meet">
<metadata>
Created by potrace 1.16, written by Peter Selinger 2001-2019
</metadata>
<g transform="translate(0.000000,32.000000) scale(0.100000,-0.100000)"
fill="#000000" stroke="none">
<path d="M29 291 c-25 -25 -29 -37 -29 -84 0 -36 5 -59 15 -67 13 -11 15 -5
15 44 0 47 4 61 25 81 22 23 32 25 108 25 74 0 86 -3 105 -23 19 -20 22 -35
22 -108 0 -108 -9 -122 -84 -129 -72 -6 -73 -24 -2 -28 45 -2 58 1 82 22 28
23 29 28 32 130 l4 106 -30 30 c-30 29 -32 30 -132 30 -99 0 -102 -1 -131 -29z"/>
<path d="M70 250 c-32 -32 -28 -129 6 -169 24 -29 30 -31 94 -31 92 0 100 9
100 110 0 99 -12 110 -112 110 -55 0 -72 -4 -88 -20z m140 -50 c27 -27 26 -74
-2 -100 -44 -41 -111 -11 -111 50 0 61 71 92 113 50z"/>
</g>
</svg>
