<?xml version="1.0" standalone="no"?>
<!DOCTYPE svg PUBLIC "-//W3C//DTD SVG 20010904//EN"
 "http://www.w3.org/TR/2001/REC-SVG-20010904/DTD/svg10.dtd">
<svg version="1.0" xmlns="http://www.w3.org/2000/svg"
 width="62.000000pt" height="72.000000pt" viewBox="0 0 62.000000 72.000000"
 preserveAspectRatio="xMidYMid meet">
<metadata>
Created by potrace 1.16, written by Peter Selinger 2001-2019
</metadata>
<g transform="translate(0.000000,72.000000) scale(0.100000,-0.100000)"
fill="#000000" stroke="none">
<path d="M208 665 c-88 -33 -156 -100 -193 -187 -25 -61 -20 -191 9 -255 52
-110 151 -175 276 -181 97 -5 171 21 234 82 73 72 86 107 86 236 0 128 -11
159 -82 226 -67 65 -119 87 -213 91 -52 2 -93 -2 -117 -12z m80 -50 c3 -3 0
-5 -6 -5 -19 0 -14 -28 7 -40 27 -14 41 -13 41 5 0 17 18 19 39 6 11 -7 10
-15 -6 -47 -11 -22 -26 -51 -33 -65 -9 -19 -17 -25 -35 -21 -39 7 -68 -15 -63
-49 5 -33 -11 -35 -27 -3 -5 11 -21 36 -34 57 -22 35 -23 42 -11 77 7 21 10
50 8 64 -3 14 0 27 6 30 13 5 107 -2 114 -9z m169 -297 c18 -7 33 -18 33 -25
0 -7 8 -13 18 -13 66 -1 47 -56 -52 -146 -67 -61 -91 -70 -67 -25 18 32 13 61
-15 94 -21 25 -25 38 -20 66 9 57 40 72 103 49z"/>
</g>
</svg>
